<svg width="1622" height="1254" viewBox="0 0 1622 1254" fill="none" xmlns="http://www.w3.org/2000/svg">
<path d="M275 21H1347.5" stroke="url(#paint0_linear_1070_1192)"/>
<path d="M701.368 0.53418H652.406H272L186.5 77H103.461H40.3359H1V1177.58L86 1253.5H1536.5L1621 1177.58V78.0404H1435L1349 0.53418L913.181 0.534668L701.368 0.53418Z" stroke="url(#paint1_linear_1070_1192)"/>
<path d="M2 61H177.5L245.5 0.5" stroke="url(#paint2_linear_1070_1192)"/>
<circle cx="71" cy="27" r="7" fill="url(#paint3_linear_1070_1192)"/>
<circle cx="105" cy="27" r="7" fill="url(#paint4_linear_1070_1192)"/>
<circle cx="139" cy="27" r="7" fill="url(#paint5_linear_1070_1192)"/>
<circle cx="1483" cy="27" r="7" fill="url(#paint6_linear_1070_1192)"/>
<circle cx="1517" cy="27" r="7" fill="url(#paint7_linear_1070_1192)"/>
<circle cx="1551" cy="27" r="7" fill="url(#paint8_linear_1070_1192)"/>
<path d="M1620 61H1444.5L1376.5 0.5" stroke="url(#paint9_linear_1070_1192)"/>
<defs>
<linearGradient id="paint0_linear_1070_1192" x1="612.004" y1="20.9754" x2="1092" y2="58.9907" gradientUnits="userSpaceOnUse">
<stop stop-color="#11D9EB"/>
<stop offset="1" stop-color="#FF14DA"/>
</linearGradient>
<linearGradient id="paint1_linear_1070_1192" x1="811" y1="-50.0005" x2="811" y2="1265" gradientUnits="userSpaceOnUse">
<stop stop-color="#11D9EB"/>
<stop offset="1" stop-color="#FF14DA"/>
</linearGradient>
<linearGradient id="paint2_linear_1070_1192" x1="182.75" y1="-2.00706" x2="182.75" y2="63.231" gradientUnits="userSpaceOnUse">
<stop stop-color="#11D9EB"/>
<stop offset="1" stop-color="#FF14DA"/>
</linearGradient>
<linearGradient id="paint3_linear_1070_1192" x1="62.3529" y1="20" x2="76.7647" y2="32.7647" gradientUnits="userSpaceOnUse">
<stop stop-color="#11D9EB"/>
<stop offset="1" stop-color="#E42BC8"/>
</linearGradient>
<linearGradient id="paint4_linear_1070_1192" x1="96.3529" y1="20" x2="110.765" y2="32.7647" gradientUnits="userSpaceOnUse">
<stop stop-color="#11D9EB"/>
<stop offset="1" stop-color="#E42BC8"/>
</linearGradient>
<linearGradient id="paint5_linear_1070_1192" x1="130.353" y1="20" x2="144.765" y2="32.7647" gradientUnits="userSpaceOnUse">
<stop stop-color="#11D9EB"/>
<stop offset="1" stop-color="#E42BC8"/>
</linearGradient>
<linearGradient id="paint6_linear_1070_1192" x1="1474.35" y1="20" x2="1488.76" y2="32.7647" gradientUnits="userSpaceOnUse">
<stop stop-color="#11D9EB"/>
<stop offset="1" stop-color="#E42BC8"/>
</linearGradient>
<linearGradient id="paint7_linear_1070_1192" x1="1508.35" y1="20" x2="1522.76" y2="32.7647" gradientUnits="userSpaceOnUse">
<stop stop-color="#11D9EB"/>
<stop offset="1" stop-color="#E42BC8"/>
</linearGradient>
<linearGradient id="paint8_linear_1070_1192" x1="1542.35" y1="20" x2="1556.76" y2="32.7647" gradientUnits="userSpaceOnUse">
<stop stop-color="#11D9EB"/>
<stop offset="1" stop-color="#E42BC8"/>
</linearGradient>
<linearGradient id="paint9_linear_1070_1192" x1="1439.25" y1="-2.00706" x2="1439.25" y2="63.231" gradientUnits="userSpaceOnUse">
<stop stop-color="#11D9EB"/>
<stop offset="1" stop-color="#FF14DA"/>
</linearGradient>
</defs>
</svg>
