<svg width="440" height="383" viewBox="0 0 440 383" fill="none" xmlns="http://www.w3.org/2000/svg">
<path d="M119.716 35.5328H119.474L119.324 35.3426L92.6102 1.5H85.4617H83.3298H67.9461H58.4407H0.5V358.915L26.7414 382.5H219.421H412.102L438.5 358.914V58.7223L412.808 35.5328H406.807H119.716Z" fill="url(#paint0_linear_1261_84)" fill-opacity="0.1" stroke="url(#paint1_radial_1261_84)"/>
<path d="M13.5 51V350L33.5 369.5" stroke="url(#paint2_linear_1261_84)"/>
<circle cx="29.5" cy="21.5" r="4.5" fill="#1AD2EB"/>
<circle cx="51.3574" cy="21.5" r="4.5" fill="#1AD2EB"/>
<circle cx="73.2139" cy="21.5" r="4.5" fill="#1AD2EB"/>
<path d="M109 1L127.018 24H413L439 44.5" stroke="url(#paint3_linear_1261_84)"/>
<defs>
<linearGradient id="paint0_linear_1261_84" x1="435.505" y1="1.00008" x2="-41.6185" y2="63.0667" gradientUnits="userSpaceOnUse">
<stop stop-color="#0A071D"/>
<stop offset="0.50368" stop-color="#2085AA"/>
<stop offset="1" stop-color="#0A071D"/>
</linearGradient>
<radialGradient id="paint1_radial_1261_84" cx="0" cy="0" r="1" gradientUnits="userSpaceOnUse" gradientTransform="translate(219.5 192) rotate(138.972) scale(290.966 1427.22)">
<stop stop-color="#0A071D"/>
<stop offset="0.530056" stop-color="#201369"/>
<stop offset="1" stop-color="#D332CE"/>
</radialGradient>
<linearGradient id="paint2_linear_1261_84" x1="19.7219" y1="50.4925" x2="28.7701" y2="50.4926" gradientUnits="userSpaceOnUse">
<stop stop-color="#11D9EB"/>
<stop offset="1" stop-color="#FF14DA"/>
</linearGradient>
<linearGradient id="paint3_linear_1261_84" x1="203.573" y1="0.959619" x2="341.106" y2="1.0815" gradientUnits="userSpaceOnUse">
<stop stop-color="#11D9EB"/>
<stop offset="1" stop-color="#FF14DA"/>
</linearGradient>
</defs>
</svg>
