<svg width="45" height="27" viewBox="0 0 45 27" fill="none" xmlns="http://www.w3.org/2000/svg">
<path d="M3.97816 26.7314L0.0931645 22.8464V4.82144L3.97816 0.936444H16.9282L20.8132 4.82144V22.8464L16.9282 26.7314H3.97816ZM7.86316 21.7614H13.0432L14.2682 20.5364V7.13145L13.0432 5.90644H7.86316L6.63817 7.13145V20.5364L7.86316 21.7614ZM27.8616 26.7314L24.1516 23.3014V18.4014H30.9766V20.7114L31.9916 21.7614H36.8216L37.8716 20.7114V15.9514L36.8216 14.9014H24.3616V0.936444H43.6816V6.11644H31.3616V10.3164H41.2316L44.9066 13.7464V23.3014L41.2316 26.7314H27.8616Z" fill="url(#paint0_linear_1343_338)"/>
<defs>
<linearGradient id="paint0_linear_1343_338" x1="-2" y1="-5.76656" x2="29.3793" y2="29.3436" gradientUnits="userSpaceOnUse">
<stop stop-color="#E42BC8"/>
<stop offset="1" stop-color="#5670FD"/>
</linearGradient>
</defs>
</svg>
