<svg width="24" height="25" fill="none" xmlns="http://www.w3.org/2000/svg"><g clip-path="url(#a)"><path d="M13.8 12.5c0 3.634-2.955 6.581-6.6 6.581a6.591 6.591 0 0 1-6.6-6.58c0-3.637 2.955-6.582 6.6-6.582a6.59 6.59 0 0 1 6.6 6.581zm7.239 0c0 3.422-1.477 6.195-3.3 6.195-1.822 0-3.299-2.774-3.299-6.195 0-3.422 1.477-6.195 3.3-6.195 1.822 0 3.299 2.774 3.299 6.195zm2.962 0c0 3.066-.52 5.55-1.162 5.55-.64 0-1.16-2.486-1.16-5.55 0-3.065.52-5.55 1.162-5.55.64 0 1.16 2.485 1.16 5.55z" fill="#fff"/></g><defs><clipPath id="a"><path fill="#fff" transform="translate(.6 .8)" d="M0 0h23.4v23.4H0z"/></clipPath></defs></svg>