<svg width="55" height="54" viewBox="0 0 55 54" fill="none" xmlns="http://www.w3.org/2000/svg">
<path fill-rule="evenodd" clip-rule="evenodd" d="M40.7939 40.3012C40.0715 41.0236 38.9001 41.0236 38.1776 40.3012L14.1246 16.2481C13.4021 15.5256 13.4021 14.3543 14.1246 13.6318C14.847 12.9093 16.0184 12.9093 16.7408 13.6318L40.7939 37.6849C41.5164 38.4073 41.5164 39.5787 40.7939 40.3012Z" fill="#11D9EB"/>
<path fill-rule="evenodd" clip-rule="evenodd" d="M14.1251 40.2514C13.4026 39.529 13.4026 38.3576 14.1251 37.6351L38.1782 13.5821C38.9007 12.8596 40.072 12.8596 40.7945 13.5821C41.5169 14.3045 41.5169 15.4759 40.7945 16.1984L16.7414 40.2514C16.0189 40.9739 14.8476 40.9739 14.1251 40.2514Z" fill="#11D9EB"/>
</svg>
