<svg width="38" height="38" viewBox="0 0 38 38" fill="none" xmlns="http://www.w3.org/2000/svg">
<circle cx="18.7844" cy="18.7844" r="18.5344" fill="#6F92ED" fill-opacity="0.1" stroke="url(#paint0_linear_1098_2751)" stroke-width="0.5"/>
<path fill-rule="evenodd" clip-rule="evenodd" d="M26.2067 12.4401C26.6233 12.8566 26.9484 13.3555 27.1611 13.9048C27.4065 14.5566 27.5373 15.2459 27.548 15.9422C27.5995 16.8216 27.5995 17.1065 27.5995 19.3515C27.5995 21.5966 27.5875 21.8769 27.548 22.7609C27.5342 23.4483 27.4047 24.1265 27.163 24.7698C26.95 25.3191 26.6248 25.818 26.2082 26.2346C25.7915 26.6512 25.2927 26.9764 24.7434 27.1894C24.1003 27.4303 23.4211 27.5605 22.7345 27.5744C21.8569 27.625 21.5692 27.625 19.3251 27.625C17.081 27.625 16.8007 27.613 15.9158 27.5744C15.2278 27.5518 14.5488 27.412 13.9078 27.1609C13.3584 26.9482 12.8593 26.6233 12.4425 26.2068C12.0257 25.7903 11.7004 25.2915 11.4873 24.7422C11.2456 24.098 11.116 23.4198 11.1022 22.7324C11.0508 21.853 11.0508 21.5672 11.0508 19.3231C11.0508 17.078 11.0627 16.7977 11.1022 15.9137C11.1157 15.2271 11.2459 14.5478 11.4873 13.9048C11.6998 13.3553 12.0248 12.8563 12.4415 12.4398C12.8582 12.0232 13.3573 11.6984 13.9069 11.4861C14.5491 11.2441 15.2278 11.1135 15.9139 11.1002C16.7916 11.0505 17.0792 11.0505 19.3233 11.0505C21.5674 11.0505 21.8477 11.0616 22.7327 11.1002C23.4193 11.1143 24.0985 11.2448 24.7415 11.4861C25.291 11.6987 25.79 12.0236 26.2067 12.4401ZM25.7561 24.2156C25.9393 23.7187 26.0359 23.194 26.0418 22.6644V22.6653H26.052C26.0915 21.7868 26.0915 21.546 26.0915 19.3076V19.3074C26.0915 17.0679 26.0814 16.8226 26.0418 15.9486C26.0333 15.425 25.9367 14.9065 25.7561 14.4149C25.618 14.0575 25.4067 13.7329 25.1357 13.4619C24.8648 13.191 24.5402 12.9797 24.1828 12.8416C23.6915 12.6588 23.1723 12.5621 22.6481 12.5558C21.7595 12.5053 21.5297 12.5053 19.2902 12.5053C17.0507 12.5053 16.8053 12.5163 15.9314 12.5558C15.4076 12.5631 14.8889 12.6598 14.3977 12.8416C13.6726 13.1191 13.0982 13.6898 12.818 14.4149C12.6348 14.9115 12.5381 15.4359 12.5322 15.9652C12.4834 16.8556 12.4834 17.0845 12.4834 19.324C12.4834 21.5626 12.4926 21.8089 12.5322 22.6819C12.5407 23.2055 12.6373 23.724 12.818 24.2156C12.9566 24.5737 13.1688 24.8986 13.4409 25.1695C13.713 25.4403 14.039 25.651 14.3977 25.788C14.8887 25.9707 15.4075 26.0674 15.9314 26.0738C16.821 26.1243 17.0498 26.1243 19.2902 26.1243C21.5288 26.1243 21.7751 26.1142 22.6481 26.0738C23.1723 26.067 23.6913 25.9703 24.1828 25.788C24.5402 25.6502 24.8649 25.4391 25.1358 25.1683C25.4068 24.8975 25.618 24.573 25.7561 24.2156ZM23.7357 15.9018C24.2828 15.9018 24.7263 15.4583 24.7263 14.9112C24.7263 14.3641 24.2828 13.9205 23.7357 13.9205C23.1886 13.9205 22.7451 14.3641 22.7451 14.9112C22.7451 15.4583 23.1886 15.9018 23.7357 15.9018ZM19.3202 15.068C18.1932 15.068 17.1124 15.5157 16.3155 16.3126C15.5186 17.1095 15.0709 18.1903 15.0709 19.3173C15.0709 20.4443 15.5186 21.5251 16.3155 22.322C17.1124 23.1189 18.1932 23.5666 19.3202 23.5666C20.4472 23.5666 21.528 23.1189 22.3249 22.322C23.1218 21.5251 23.5695 20.4443 23.5695 19.3173C23.5695 18.1903 23.1218 17.1095 22.3249 16.3126C21.528 15.5157 20.4472 15.068 19.3202 15.068ZM19.3202 22.0769C18.5881 22.0769 17.8859 21.7861 17.3682 21.2684C16.8505 20.7507 16.5597 20.0485 16.5597 19.3164C16.5597 18.5842 16.8505 17.882 17.3682 17.3643C17.8859 16.8466 18.5881 16.5558 19.3202 16.5558C20.0524 16.5558 20.7545 16.8466 21.2723 17.3643C21.79 17.882 22.0808 18.5842 22.0808 19.3164C22.0808 20.0485 21.79 20.7507 21.2723 21.2684C20.7545 21.7861 20.0524 22.0769 19.3202 22.0769Z" fill="white"/>
<defs>
<linearGradient id="paint0_linear_1098_2751" x1="2.86613e-07" y1="37.5687" x2="40.2281" y2="34.4647" gradientUnits="userSpaceOnUse">
<stop offset="0.00124224" stop-color="#E42BC8"/>
<stop offset="0.472448" stop-color="#4663FE"/>
<stop offset="1" stop-color="#1DCEF4"/>
</linearGradient>
</defs>
</svg>
