<svg width="38" height="38" viewBox="0 0 38 38" fill="none" xmlns="http://www.w3.org/2000/svg">
<circle cx="18.9269" cy="18.7844" r="18.5344" fill="#6F92ED" fill-opacity="0.1" stroke="url(#paint0_linear_1098_2759)" stroke-width="0.5"/>
<path d="M26.6643 13.7283C26.0548 13.9941 25.4 14.1737 24.7116 14.2549C25.4219 13.8367 25.9533 13.1784 26.2066 12.403C25.5393 12.7931 24.809 13.0676 24.0474 13.2147C23.5352 12.6766 22.8569 12.3199 22.1176 12.2C21.3784 12.0802 20.6196 12.2039 19.9591 12.5519C19.2985 12.8999 18.7733 13.4528 18.4648 14.1247C18.1563 14.7966 18.0818 15.5499 18.253 16.2677C16.9009 16.2009 15.5781 15.855 14.3706 15.2526C13.1631 14.6502 12.0978 13.8046 11.2439 12.7708C10.9519 13.2664 10.784 13.8411 10.784 14.4532C10.7837 15.0041 10.9216 15.5466 11.1854 16.0326C11.4493 16.5185 11.8309 16.9329 12.2965 17.2389C11.7565 17.222 11.2285 17.0784 10.7563 16.8201V16.8632C10.7562 17.6359 11.0279 18.3849 11.5251 18.983C12.0223 19.5811 12.7145 19.9915 13.4842 20.1446C12.9832 20.278 12.4581 20.2976 11.9483 20.2021C12.1655 20.867 12.5885 21.4484 13.1581 21.865C13.7278 22.2815 14.4155 22.5124 15.1251 22.5252C13.9205 23.4557 12.4329 23.9605 10.9016 23.9583C10.6303 23.9583 10.3593 23.9427 10.0898 23.9116C11.6443 24.8951 13.4537 25.4171 15.3017 25.4151C21.5575 25.4151 24.9774 20.3163 24.9774 15.8941C24.9774 15.7505 24.9737 15.6054 24.9671 15.4617C25.6323 14.9883 26.2065 14.4021 26.6628 13.7305L26.6643 13.7283Z" fill="white"/>
<defs>
<linearGradient id="paint0_linear_1098_2759" x1="0.142578" y1="37.5687" x2="40.3706" y2="34.4647" gradientUnits="userSpaceOnUse">
<stop offset="0.00124224" stop-color="#E42BC8"/>
<stop offset="0.472448" stop-color="#4663FE"/>
<stop offset="1" stop-color="#1DCEF4"/>
</linearGradient>
</defs>
</svg>
