<svg width="360" height="41" viewBox="0 0 360 41" fill="none" xmlns="http://www.w3.org/2000/svg">
<g filter="url(#filter0_b_1098_4303)">
<path d="M0.461207 41L7.61121 0.464997H34.2862L41.2162 8.88L37.0362 32.585L27.1362 41H0.461207ZM12.2312 33.19H23.9462L27.4112 30.275L30.7662 11.19L28.3462 8.275H16.6312L12.2312 33.19ZM39.4639 41L44.5239 12.235H54.9189L54.1489 16.745L59.8139 12.29H65.5339L63.9389 21.475H55.5789L52.9389 23.51L49.8589 41H39.4639ZM68.3458 9.045L69.7208 1.345H80.2258L78.8508 9.045H68.3458ZM62.7908 41L67.8508 12.235H78.2458L73.1858 41H62.7908ZM85.2519 41L80.1369 12.29H91.5219L92.8969 33.245H94.8769L102.302 12.29H115.007L99.7719 41H85.2519ZM116.708 41L111.703 34.895L114.563 18.395L121.768 12.29H138.158L143.163 18.395L141.293 29.285H123.088L122.593 31.815L124.243 33.74H140.028L138.763 41H116.708ZM124.133 23.345H132.878L133.483 19.935L131.833 18.01H127.048L124.738 19.935L124.133 23.345ZM154.998 41L156.648 31.54L181.453 13.335L182.058 9.925L180.738 8.275H173.478L171.553 9.925L170.783 14.16H160.388L161.873 5.855L168.583 0.464997H188.328L193.168 5.855L191.243 16.745L168.968 32.805H188.713L187.283 41H154.998ZM203.877 41L211.027 0.464997H242.047L240.562 8.825H219.937L218.617 16.305H237.207L235.887 24.06H217.242L215.757 32.64H236.382L234.897 41H203.877ZM235.485 41L254.735 0.464997H271.51L276.13 41H265.68L265.075 32.915H250.61L247.2 41H235.485ZM253.855 24.995H264.415L263.095 8.22H261.115L253.855 24.995ZM278.458 41L285.608 0.464997H313.438L318.553 6.57L315.968 21.09L310.248 25.93L313.713 41H303.868L300.953 27.195H291.273L288.853 41H278.458ZM292.648 19.385H304.198L306.508 17.46L307.773 10.2L306.178 8.275H294.628L292.648 19.385ZM317.629 41L324.779 0.464997H335.449L345.239 25.875L349.749 0.464997H359.429L352.279 41H342.599L333.469 17.24H331.489L327.309 41H317.629Z" fill="url(#paint0_linear_1098_4303)"/>
<path d="M0.461206 41L-0.0311918 40.9131L-0.134707 41.5H0.461206V41ZM7.61121 0.464997V-0.0350027H7.19168L7.11881 0.378142L7.61121 0.464997ZM34.2862 0.464997L34.6722 0.147143L34.5222 -0.0350027H34.2862V0.464997ZM41.2162 8.88L41.7086 8.96683L41.7486 8.73997L41.6022 8.56214L41.2162 8.88ZM37.0362 32.585L37.36 32.966L37.4973 32.8493L37.5286 32.6718L37.0362 32.585ZM27.1362 41V41.5H27.32L27.46 41.381L27.1362 41ZM12.2312 33.19L11.7388 33.103L11.6352 33.69H12.2312V33.19ZM23.9462 33.19V33.69H24.1286L24.2681 33.5726L23.9462 33.19ZM27.4112 30.275L27.7331 30.6576L27.8722 30.5406L27.9037 30.3616L27.4112 30.275ZM30.7662 11.19L31.2587 11.2766L31.2987 11.0487L31.1509 10.8706L30.7662 11.19ZM28.3462 8.275L28.7309 7.95562L28.581 7.775H28.3462V8.275ZM16.6312 8.275V7.775H16.2118L16.1388 8.18804L16.6312 8.275ZM0.953606 41.0869L8.10361 0.551852L7.11881 0.378142L-0.0311918 40.9131L0.953606 41.0869ZM7.61121 0.964997H34.2862V-0.0350027H7.61121V0.964997ZM33.9002 0.782851L40.8302 9.19785L41.6022 8.56214L34.6722 0.147143L33.9002 0.782851ZM40.7238 8.79317L36.5438 32.4982L37.5286 32.6718L41.7086 8.96683L40.7238 8.79317ZM36.7124 32.204L26.8124 40.619L27.46 41.381L37.36 32.966L36.7124 32.204ZM27.1362 40.5H0.461206V41.5H27.1362V40.5ZM12.2312 33.69H23.9462V32.69H12.2312V33.69ZM24.2681 33.5726L27.7331 30.6576L27.0893 29.8924L23.6243 32.8074L24.2681 33.5726ZM27.9037 30.3616L31.2587 11.2766L30.2738 11.1034L26.9188 30.1884L27.9037 30.3616ZM31.1509 10.8706L28.7309 7.95562L27.9615 8.59438L30.3815 11.5094L31.1509 10.8706ZM28.3462 7.775H16.6312V8.775H28.3462V7.775ZM16.1388 8.18804L11.7388 33.103L12.7236 33.277L17.1236 8.36195L16.1388 8.18804ZM39.4639 41L38.9715 40.9134L38.8683 41.5H39.4639V41ZM44.5239 12.235V11.735H44.1042L44.0315 12.1484L44.5239 12.235ZM54.9189 12.235L55.4118 12.3191L55.5115 11.735H54.9189V12.235ZM54.1489 16.745L53.6561 16.6609L53.4376 17.9405L54.458 17.138L54.1489 16.745ZM59.8139 12.29V11.79H59.6409L59.5049 11.897L59.8139 12.29ZM65.5339 12.29L66.0266 12.3755L66.1283 11.79H65.5339V12.29ZM63.9389 21.475V21.975H64.3596L64.4316 21.5605L63.9389 21.475ZM55.5789 21.475V20.975H55.4086L55.2737 21.079L55.5789 21.475ZM52.9389 23.51L52.6337 23.114L52.4801 23.2324L52.4465 23.4233L52.9389 23.51ZM49.8589 41V41.5H50.2786L50.3514 41.0867L49.8589 41ZM39.9564 41.0866L45.0164 12.3216L44.0315 12.1484L38.9715 40.9134L39.9564 41.0866ZM44.5239 12.735H54.9189V11.735H44.5239V12.735ZM54.4261 12.1509L53.6561 16.6609L54.6418 16.8291L55.4118 12.3191L54.4261 12.1509ZM54.458 17.138L60.123 12.683L59.5049 11.897L53.8399 16.352L54.458 17.138ZM59.8139 12.79H65.5339V11.79H59.8139V12.79ZM65.0413 12.2045L63.4463 21.3895L64.4316 21.5605L66.0266 12.3755L65.0413 12.2045ZM63.9389 20.975H55.5789V21.975H63.9389V20.975ZM55.2737 21.079L52.6337 23.114L53.2442 23.906L55.8842 21.871L55.2737 21.079ZM52.4465 23.4233L49.3665 40.9133L50.3514 41.0867L53.4314 23.5967L52.4465 23.4233ZM49.8589 40.5H39.4639V41.5H49.8589V40.5ZM68.3458 9.045L67.8536 8.9571L67.7486 9.545H68.3458V9.045ZM69.7208 1.345V0.844999H69.3022L69.2286 1.2571L69.7208 1.345ZM80.2258 1.345L80.718 1.43289L80.823 0.844999H80.2258V1.345ZM78.8508 9.045V9.545H79.2694L79.343 9.13289L78.8508 9.045ZM62.7908 41L62.2984 40.9134L62.1952 41.5H62.7908V41ZM67.8508 12.235V11.735H67.4311L67.3584 12.1484L67.8508 12.235ZM78.2458 12.235L78.7383 12.3216L78.8414 11.735H78.2458V12.235ZM73.1858 41V41.5H73.6055L73.6783 41.0866L73.1858 41ZM68.838 9.13289L70.213 1.43289L69.2286 1.2571L67.8536 8.9571L68.838 9.13289ZM69.7208 1.845H80.2258V0.844999H69.7208V1.845ZM79.7336 1.2571L78.3586 8.9571L79.343 9.13289L80.718 1.43289L79.7336 1.2571ZM78.8508 8.545H68.3458V9.545H78.8508V8.545ZM63.2832 41.0866L68.3433 12.3216L67.3584 12.1484L62.2984 40.9134L63.2832 41.0866ZM67.8508 12.735H78.2458V11.735H67.8508V12.735ZM77.7534 12.1484L72.6934 40.9134L73.6783 41.0866L78.7383 12.3216L77.7534 12.1484ZM73.1858 40.5H62.7908V41.5H73.1858V40.5ZM85.2519 41L84.7596 41.0877L84.8331 41.5H85.2519V41ZM80.1369 12.29V11.79H79.5399L79.6446 12.3777L80.1369 12.29ZM91.5219 12.29L92.0208 12.2573L91.9901 11.79H91.5219V12.29ZM92.8969 33.245L92.3979 33.2777L92.4286 33.745H92.8969V33.245ZM94.8769 33.245V33.745H95.2302L95.3482 33.412L94.8769 33.245ZM102.302 12.29V11.79H101.949L101.831 12.123L102.302 12.29ZM115.007 12.29L115.449 12.5244L115.838 11.79H115.007V12.29ZM99.7719 41V41.5H100.073L100.214 41.2344L99.7719 41ZM85.7441 40.9123L80.6291 12.2023L79.6446 12.3777L84.7596 41.0877L85.7441 40.9123ZM80.1369 12.79H91.5219V11.79H80.1369V12.79ZM91.0229 12.3227L92.3979 33.2777L93.3958 33.2123L92.0208 12.2573L91.0229 12.3227ZM92.8969 33.745H94.8769V32.745H92.8969V33.745ZM95.3482 33.412L102.773 12.457L101.831 12.123L94.4056 33.078L95.3482 33.412ZM102.302 12.79H115.007V11.79H102.302V12.79ZM114.565 12.0556L99.3302 40.7656L100.214 41.2344L115.449 12.5244L114.565 12.0556ZM99.7719 40.5H85.2519V41.5H99.7719V40.5ZM116.708 41L116.321 41.317L116.471 41.5H116.708V41ZM111.703 34.895L111.21 34.8096L111.171 35.0351L111.316 35.212L111.703 34.895ZM114.563 18.395L114.24 18.0135L114.101 18.1308L114.07 18.3096L114.563 18.395ZM121.768 12.29V11.79H121.585L121.445 11.9085L121.768 12.29ZM138.158 12.29L138.545 11.973L138.395 11.79H138.158V12.29ZM143.163 18.395L143.656 18.4796L143.694 18.2546L143.55 18.078L143.163 18.395ZM141.293 29.285V29.785H141.714L141.786 29.3696L141.293 29.285ZM123.088 29.285V28.785H122.676L122.597 29.189L123.088 29.285ZM122.593 31.815L122.102 31.719L122.056 31.9566L122.213 32.1404L122.593 31.815ZM124.243 33.74L123.863 34.0654L124.013 34.24H124.243V33.74ZM140.028 33.74L140.521 33.8258L140.623 33.24H140.028V33.74ZM138.763 41V41.5H139.183L139.256 41.0858L138.763 41ZM124.133 23.345L123.641 23.2577L123.536 23.845H124.133V23.345ZM132.878 23.345V23.845H133.297L133.37 23.4323L132.878 23.345ZM133.483 19.935L133.975 20.0223L134.017 19.7893L133.863 19.6096L133.483 19.935ZM131.833 18.01L132.213 17.6846L132.063 17.51H131.833V18.01ZM127.048 18.01V17.51H126.867L126.728 17.6259L127.048 18.01ZM124.738 19.935L124.418 19.5509L124.278 19.6678L124.246 19.8477L124.738 19.935ZM117.095 40.683L112.09 34.578L111.316 35.212L116.321 41.317L117.095 40.683ZM112.196 34.9804L115.056 18.4804L114.07 18.3096L111.21 34.8096L112.196 34.9804ZM114.886 18.7765L122.091 12.6715L121.445 11.9085L114.24 18.0135L114.886 18.7765ZM121.768 12.79H138.158V11.79H121.768V12.79ZM137.771 12.607L142.776 18.712L143.55 18.078L138.545 11.973L137.771 12.607ZM142.67 18.3104L140.8 29.2004L141.786 29.3696L143.656 18.4796L142.67 18.3104ZM141.293 28.785H123.088V29.785H141.293V28.785ZM122.597 29.189L122.102 31.719L123.084 31.911L123.579 29.381L122.597 29.189ZM122.213 32.1404L123.863 34.0654L124.623 33.4146L122.973 31.4896L122.213 32.1404ZM124.243 34.24H140.028V33.24H124.243V34.24ZM139.535 33.6542L138.27 40.9142L139.256 41.0858L140.521 33.8258L139.535 33.6542ZM138.763 40.5H116.708V41.5H138.763V40.5ZM124.133 23.845H132.878V22.845H124.133V23.845ZM133.37 23.4323L133.975 20.0223L132.991 19.8477L132.386 23.2577L133.37 23.4323ZM133.863 19.6096L132.213 17.6846L131.453 18.3354L133.103 20.2604L133.863 19.6096ZM131.833 17.51H127.048V18.51H131.833V17.51ZM126.728 17.6259L124.418 19.5509L125.058 20.3191L127.368 18.3941L126.728 17.6259ZM124.246 19.8477L123.641 23.2577L124.625 23.4323L125.23 20.0223L124.246 19.8477ZM154.998 41L154.506 40.9141L154.404 41.5H154.998V41ZM156.648 31.54L156.352 31.1369L156.19 31.2559L156.156 31.4541L156.648 31.54ZM181.453 13.335L181.749 13.7381L181.911 13.6196L181.946 13.4223L181.453 13.335ZM182.058 9.925L182.551 10.0123L182.59 9.78943L182.449 9.61265L182.058 9.925ZM180.738 8.275L181.129 7.96265L180.979 7.775H180.738V8.275ZM173.478 8.275V7.775H173.293L173.153 7.89537L173.478 8.275ZM171.553 9.925L171.228 9.54537L171.093 9.6609L171.061 9.83556L171.553 9.925ZM170.783 14.16V14.66H171.201L171.275 14.2494L170.783 14.16ZM160.388 14.16L159.896 14.072L159.791 14.66H160.388V14.16ZM161.873 5.855L161.56 5.46519L161.414 5.58253L161.381 5.76699L161.873 5.855ZM168.583 0.464997V-0.0350027H168.407L168.27 0.0751867L168.583 0.464997ZM188.328 0.464997L188.7 0.130935L188.551 -0.0350027H188.328V0.464997ZM193.168 5.855L193.661 5.94203L193.703 5.70217L193.54 5.52093L193.168 5.855ZM191.243 16.745L191.536 17.1506L191.7 17.0319L191.736 16.832L191.243 16.745ZM168.968 32.805L168.676 32.3994L167.42 33.305H168.968V32.805ZM188.713 32.805L189.206 32.8909L189.308 32.305H188.713V32.805ZM187.283 41V41.5H187.704L187.776 41.0859L187.283 41ZM155.491 41.0859L157.141 31.6259L156.156 31.4541L154.506 40.9141L155.491 41.0859ZM156.944 31.9431L181.749 13.7381L181.157 12.9319L156.352 31.1369L156.944 31.9431ZM181.946 13.4223L182.551 10.0123L181.566 9.83765L180.961 13.2477L181.946 13.4223ZM182.449 9.61265L181.129 7.96265L180.348 8.58735L181.668 10.2373L182.449 9.61265ZM180.738 7.775H173.478V8.775H180.738V7.775ZM173.153 7.89537L171.228 9.54537L171.879 10.3046L173.804 8.65463L173.153 7.89537ZM171.061 9.83556L170.291 14.0706L171.275 14.2494L172.045 10.0144L171.061 9.83556ZM170.783 13.66H160.388V14.66H170.783V13.66ZM160.881 14.248L162.366 5.943L161.381 5.76699L159.896 14.072L160.881 14.248ZM162.186 6.24481L168.896 0.854808L168.27 0.0751867L161.56 5.46519L162.186 6.24481ZM168.583 0.964997H188.328V-0.0350027H168.583V0.964997ZM187.956 0.79906L192.796 6.18906L193.54 5.52093L188.7 0.130935L187.956 0.79906ZM192.676 5.76796L190.751 16.658L191.736 16.832L193.661 5.94203L192.676 5.76796ZM190.951 16.3394L168.676 32.3994L169.261 33.2106L191.536 17.1506L190.951 16.3394ZM168.968 33.305H188.713V32.305H168.968V33.305ZM188.221 32.7191L186.791 40.9141L187.776 41.0859L189.206 32.8909L188.221 32.7191ZM187.283 40.5H154.998V41.5H187.283V40.5ZM203.877 41L203.385 40.9131L203.282 41.5H203.877V41ZM211.027 0.464997V-0.0350027H210.608L210.535 0.378142L211.027 0.464997ZM242.047 0.464997L242.54 0.552444L242.644 -0.0350027H242.047V0.464997ZM240.562 8.825V9.325H240.981L241.055 8.91245L240.562 8.825ZM219.937 8.825V8.325H219.518L219.445 8.73811L219.937 8.825ZM218.617 16.305L218.125 16.2181L218.021 16.805H218.617V16.305ZM237.207 16.305L237.7 16.3889L237.8 15.805H237.207V16.305ZM235.887 24.06V24.56H236.31L236.38 24.1439L235.887 24.06ZM217.242 24.06V23.56H216.822L216.75 23.9747L217.242 24.06ZM215.757 32.64L215.265 32.5547L215.163 33.14H215.757V32.64ZM236.382 32.64L236.875 32.7274L236.979 32.14H236.382V32.64ZM234.897 41V41.5H235.316L235.39 41.0874L234.897 41ZM204.37 41.0869L211.52 0.551852L210.535 0.378142L203.385 40.9131L204.37 41.0869ZM211.027 0.964997H242.047V-0.0350027H211.027V0.964997ZM241.555 0.37755L240.07 8.73755L241.055 8.91245L242.54 0.552444L241.555 0.37755ZM240.562 8.325H219.937V9.325H240.562V8.325ZM219.445 8.73811L218.125 16.2181L219.11 16.3919L220.43 8.91189L219.445 8.73811ZM218.617 16.805H237.207V15.805H218.617V16.805ZM236.715 16.2211L235.395 23.9761L236.38 24.1439L237.7 16.3889L236.715 16.2211ZM235.887 23.56H217.242V24.56H235.887V23.56ZM216.75 23.9747L215.265 32.5547L216.25 32.7253L217.735 24.1453L216.75 23.9747ZM215.757 33.14H236.382V32.14H215.757V33.14ZM235.89 32.5526L234.405 40.9126L235.39 41.0874L236.875 32.7274L235.89 32.5526ZM234.897 40.5H203.877V41.5H234.897V40.5ZM235.485 41L235.034 40.7855L234.694 41.5H235.485V41ZM254.735 0.464997V-0.0350027H254.419L254.284 0.250506L254.735 0.464997ZM271.51 0.464997L272.007 0.408376L271.956 -0.0350027H271.51V0.464997ZM276.13 41V41.5H276.69L276.627 40.9434L276.13 41ZM265.68 41L265.182 41.0373L265.216 41.5H265.68V41ZM265.075 32.915L265.574 32.8777L265.539 32.415H265.075V32.915ZM250.61 32.915V32.415H250.278L250.15 32.7207L250.61 32.915ZM247.2 41V41.5H247.532L247.661 41.1943L247.2 41ZM253.855 24.995L253.396 24.7964L253.094 25.495H253.855V24.995ZM264.415 24.995V25.495H264.956L264.914 24.9558L264.415 24.995ZM263.095 8.22L263.594 8.18078L263.557 7.72H263.095V8.22ZM261.115 8.22V7.72H260.787L260.656 8.02141L261.115 8.22ZM235.937 41.2145L255.187 0.679488L254.284 0.250506L235.034 40.7855L235.937 41.2145ZM254.735 0.964997H271.51V-0.0350027H254.735V0.964997ZM271.013 0.521619L275.633 41.0566L276.627 40.9434L272.007 0.408376L271.013 0.521619ZM276.13 40.5H265.68V41.5H276.13V40.5ZM266.179 40.9627L265.574 32.8777L264.577 32.9523L265.182 41.0373L266.179 40.9627ZM265.075 32.415H250.61V33.415H265.075V32.415ZM250.15 32.7207L246.74 40.8057L247.661 41.1943L251.071 33.1093L250.15 32.7207ZM247.2 40.5H235.485V41.5H247.2V40.5ZM253.855 25.495H264.415V24.495H253.855V25.495ZM264.914 24.9558L263.594 8.18078L262.597 8.25922L263.917 25.0342L264.914 24.9558ZM263.095 7.72H261.115V8.72H263.095V7.72ZM260.656 8.02141L253.396 24.7964L254.314 25.1936L261.574 8.41859L260.656 8.02141ZM278.458 41L277.966 40.9131L277.862 41.5H278.458V41ZM285.608 0.464997V-0.0350027H285.189L285.116 0.378142L285.608 0.464997ZM313.438 0.464997L313.822 0.143888L313.672 -0.0350027H313.438V0.464997ZM318.553 6.57L319.046 6.65763L319.086 6.42782L318.937 6.24889L318.553 6.57ZM315.968 21.09L316.291 21.4717L316.429 21.3552L316.461 21.1776L315.968 21.09ZM310.248 25.93L309.925 25.5483L309.693 25.7451L309.761 26.042L310.248 25.93ZM313.713 41V41.5H314.341L314.201 40.888L313.713 41ZM303.868 41L303.379 41.1033L303.463 41.5H303.868V41ZM300.953 27.195L301.442 27.0917L301.359 26.695H300.953V27.195ZM291.273 27.195V26.695H290.853L290.781 27.1087L291.273 27.195ZM288.853 41V41.5H289.273L289.346 41.0863L288.853 41ZM292.648 19.385L292.156 19.2973L292.051 19.885H292.648V19.385ZM304.198 19.385V19.885H304.379L304.518 19.7691L304.198 19.385ZM306.508 17.46L306.828 17.8441L306.969 17.7266L307.001 17.5458L306.508 17.46ZM307.773 10.2L308.266 10.2858L308.305 10.0586L308.158 9.88099L307.773 10.2ZM306.178 8.275L306.563 7.95599L306.413 7.775H306.178V8.275ZM294.628 8.275V7.775H294.21L294.136 8.18727L294.628 8.275ZM278.951 41.0869L286.101 0.551852L285.116 0.378142L277.966 40.9131L278.951 41.0869ZM285.608 0.964997H313.438V-0.0350027H285.608V0.964997ZM313.055 0.786107L318.17 6.89111L318.937 6.24889L313.822 0.143888L313.055 0.786107ZM318.061 6.48236L315.476 21.0024L316.461 21.1776L319.046 6.65763L318.061 6.48236ZM315.645 20.7083L309.925 25.5483L310.571 26.3117L316.291 21.4717L315.645 20.7083ZM309.761 26.042L313.226 41.112L314.201 40.888L310.736 25.818L309.761 26.042ZM313.713 40.5H303.868V41.5H313.713V40.5ZM304.357 40.8967L301.442 27.0917L300.464 27.2983L303.379 41.1033L304.357 40.8967ZM300.953 26.695H291.273V27.695H300.953V26.695ZM290.781 27.1087L288.361 40.9137L289.346 41.0863L291.766 27.2813L290.781 27.1087ZM288.853 40.5H278.458V41.5H288.853V40.5ZM292.648 19.885H304.198V18.885H292.648V19.885ZM304.518 19.7691L306.828 17.8441L306.188 17.0759L303.878 19.0009L304.518 19.7691ZM307.001 17.5458L308.266 10.2858L307.281 10.1142L306.016 17.3742L307.001 17.5458ZM308.158 9.88099L306.563 7.95599L305.793 8.59401L307.388 10.519L308.158 9.88099ZM306.178 7.775H294.628V8.775H306.178V7.775ZM294.136 8.18727L292.156 19.2973L293.141 19.4727L295.121 8.36272L294.136 8.18727ZM317.629 41L317.136 40.9131L317.033 41.5H317.629V41ZM324.779 0.464997V-0.0350027H324.359L324.286 0.378142L324.779 0.464997ZM335.449 0.464997L335.915 0.285237L335.792 -0.0350027H335.449V0.464997ZM345.239 25.875L344.772 26.0548L345.417 27.7295L345.731 25.9624L345.239 25.875ZM349.749 0.464997V-0.0350027H349.33L349.256 0.377619L349.749 0.464997ZM359.429 0.464997L359.921 0.551852L360.025 -0.0350027H359.429V0.464997ZM352.279 41V41.5H352.698L352.771 41.0869L352.279 41ZM342.599 41L342.132 41.1793L342.255 41.5H342.599V41ZM333.469 17.24L333.935 17.0607L333.812 16.74H333.469V17.24ZM331.489 17.24V16.74H331.069L330.996 17.1534L331.489 17.24ZM327.309 41V41.5H327.728L327.801 41.0866L327.309 41ZM318.121 41.0869L325.271 0.551852L324.286 0.378142L317.136 40.9131L318.121 41.0869ZM324.779 0.964997H335.449V-0.0350027H324.779V0.964997ZM334.982 0.644757L344.772 26.0548L345.705 25.6952L335.915 0.285237L334.982 0.644757ZM345.731 25.9624L350.241 0.552376L349.256 0.377619L344.746 25.7876L345.731 25.9624ZM349.749 0.964997H359.429V-0.0350027H349.749V0.964997ZM358.936 0.378142L351.786 40.9131L352.771 41.0869L359.921 0.551852L358.936 0.378142ZM352.279 40.5H342.599V41.5H352.279V40.5ZM343.065 40.8207L333.935 17.0607L333.002 17.4193L342.132 41.1793L343.065 40.8207ZM333.469 16.74H331.489V17.74H333.469V16.74ZM330.996 17.1534L326.816 40.9134L327.801 41.0866L331.981 17.3266L330.996 17.1534ZM327.309 40.5H317.629V41.5H327.309V40.5Z" fill="#11D9EB"/>
</g>
<defs>
<filter id="filter0_b_1098_4303" x="-39.5391" y="-39.5352" width="438.967" height="120.535" filterUnits="userSpaceOnUse" color-interpolation-filters="sRGB">
<feFlood flood-opacity="0" result="BackgroundImageFix"/>
<feGaussianBlur in="BackgroundImage" stdDeviation="20"/>
<feComposite in2="SourceAlpha" operator="in" result="effect1_backgroundBlur_1098_4303"/>
<feBlend mode="normal" in="SourceGraphic" in2="effect1_backgroundBlur_1098_4303" result="shape"/>
</filter>
<linearGradient id="paint0_linear_1098_4303" x1="170.503" y1="48.5" x2="168.122" y2="1.0722" gradientUnits="userSpaceOnUse">
<stop stop-color="#82F7CE"/>
<stop offset="0.49248" stop-color="#5E47E3"/>
<stop offset="1" stop-color="#D750EC"/>
</linearGradient>
</defs>
</svg>
